#!OML:ASF H:\LiuWeirdWalks\Patient Classification 1\Patient 1\Session 1\male.ASF
:FULLY-SPECIFIED
:DEGREES
2070
root 1.86075 17.9495 -4.03623 365.405 2.6521 12.739
lowerback 13.4192 0.598342 -2.71287
upperback -0.473817 1.34576 11.3126
thorax -8.50487 1.13538 14.0489
lowerneck -24.5558 3.11279 8.6793
upperneck 16.2573 4.89374 -16.2901
head 9.89939 0.957396 -6.5316
rclavicle 2.38542e-014 3.18055e-015
rhumerus -47.4707 -19.5387 -38.1862
rradius 33.7272
rwrist -10.3502
rhand -10.2237 -4.63808
rfingers 7.12502
rthumb 15.7682 -34.0158
lclavicle 2.38542e-014 3.18055e-015
lhumerus -40.3966 -10.4515 89.1106
lradius 58.8873
lwrist 5.54678
lhand -7.40071 -3.93044
lfingers 7.12502
lthumb 18.4854 25.2112
rfemur -34.2801 -14.2305 -0.689971
rtibia 58.4353
rfoot -9.98993 -16.5367
rtoes -9.51663
lfemur -4.53721 4.75344 -37.2797
ltibia 17.8144
lfoot -7.85297 8.62739
ltoes -11.4545
2071
root 1.86191 17.9473 -3.90914 365.549 2.59189 12.7816
lowerback 13.4235 0.585341 -2.77027
upperback -0.484158 1.31962 11.3103
thorax -8.51339 1.12606 14.0893
lowerneck -24.6306 3.12983 8.66726
upperneck 16.1256 4.89521 -16.268
head 9.86569 0.959466 -6.51606
rclavicle 4.77083e-015 3.18055e-014
rhumerus -47.6895 -19.6007 -38.226
rradius 33.5758
rwrist -10.2459
rhand -10.2312 -4.6218
rfingers 7.12502
rthumb 15.761 -34.0001
lclavicle 4.77083e-015 3.18055e-014
lhumerus -40.1803 -10.309 88.7127
lradius 59.3849
lwrist 5.96273
lhand -7.88765 -3.99481
lfingers 7.12502
lthumb 18.0169 25.1907
rfemur -34.7812 -14.2897 -0.350007
rtibia 56.3697
rfoot -10.1399 -16.8139
rtoes -9.66513
lfemur -4.10771 4.65458 -37.3052
ltibia 17.5547
lfoot -7.85872 8.82694
ltoes -11.7841
2072
root 1.8622 17.9483 -3.78116 365.7 2.51394 12.8005
lowerback 13.4196 0.580296 -2.80719
upperback -0.490075 1.30724 11.3129
thorax -8.51554 1.12214 14.1191
lowerneck -24.7451 3.13765 8.62877
upperneck 16.0435 4.8906 -16.217
head 9.85383 0.957466 -6.48885
rclavicle -5.56597e-015 7.95139e-014
rhumerus -47.8892 -19.6669 -38.2675
rradius 33.4308
rwrist -10.1437
rhand -10.2855 -4.6056
rfingers 7.12502
rthumb 15.7087 -33.988
lclavicle -5.56597e-015 7.95139e-014
lhumerus -39.9678 -10.1727 88.3383
lradius 59.8516
lwrist 6.39665
lhand -8.36077 -4.08588
lfingers 7.12502
lthumb 17.5617 25.1409
rfemur -35.2179 -14.3137 0.0150032
rtibia 54.1569
rfoot -10.1647 -17.1047
rtoes -9.78003
lfemur -3.64708 4.56309 -37.3067
ltibia 17.196
lfoot -7.80353 9.01694
ltoes -12.111
2073
root 1.86146 17.9526 -3.65211 365.862 2.44324 12.8153
lowerback 13.4127 0.573598 -2.84036
upperback -0.507125 1.29424 11.3168
thorax -8.52815 1.11885 14.1489
lowerneck -24.8491 3.1315 8.56549
upperneck 15.9828 4.87489 -16.1494
head 9.84462 0.950497 -6.45356
rclavicle -1.35174e-014 -4.13472e-014
rhumerus -48.0812 -19.7163 -38.3029
rradius 33.2927
rwrist -10.0386
rhand -10.3212 -4.56185
rfingers 7.12502
rthumb 15.6743 -33.947
lclavicle -1.35174e-014 -4.13472e-014
lhumerus -39.7852 -10.0277 87.991
lradius 60.2871
lwrist 6.79198
lhand -8.8389 -4.22481
lfingers 7.12502
lthumb 17.1015 25.0425
rfemur -35.5858 -14.3278 0.378286
rtibia 51.8139
rfoot -10.0558 -17.394
rtoes -9.87997
lfemur -3.14425 4.47923 -37.3014
ltibia 16.7212
lfoot -7.67757 9.17246
ltoes -12.4454
2074
root 1.85972 17.9591 -3.52202 366.028 2.36467 12.8138
lowerback 13.3991 0.569714 -2.86105
upperback -0.524957 1.28715 11.3239
thorax -8.53917 1.11792 14.1732
lowerneck -24.955 3.14138 8.53135
upperneck 15.9174 4.87714 -16.1097
head 9.83859 0.950764 -6.43104
rclavicle -3.89618e-014 1.90833e-014
rhumerus -48.2557 -19.7625 -38.34
rradius 33.1672
rwrist -9.96126
rhand -10.3514 -4.54622
rfingers 7.12502
rthumb 15.6452 -33.9336
lclavicle -3.89618e-014 1.90833e-014
lhumerus -39.6196 -9.88096 87.6659
lradius 60.6931
lwrist 7.16959
lhand -9.30111 -4.3653
lfingers 7.12502
lthumb 16.6566 24.94
rfemur -35.8925 -14.3036 0.747933
rtibia 49.3653
rfoot -9.81601 -17.6799
rtoes -9.96936
lfemur -2.58474 4.40301 -37.2769
ltibia 16.1176
lfoot -7.48646 9.30528
ltoes -12.7758
2075
root 1.85704 17.9671 -3.3912 366.209 2.29156 12.8197
lowerback 13.3708 0.561324 -2.8869
upperback -0.552643 1.27322 11.3279
thorax -8.55088 1.11419 14.1983
lowerneck -25.0184 3.16519 8.53631
upperneck 15.7972 4.88921 -16.1086
head 9.80961 0.956856 -6.42529
rclavicle 7.95139e-015 4.77083e-014
rhumerus -48.4119 -19.8199 -38.3596
rradius 33.0302
rwrist -9.85353
rhand -10.3594 -4.52888
rfingers 7.12502
rthumb 15.6375 -33.9169
lclavicle 7.95139e-015 4.77083e-014
lhumerus -39.4836 -9.72101 87.3616
lradius 61.0719
lwrist 7.5216
lhand -9.73543 -4.49717
lfingers 7.12502
lthumb 16.2384 24.8428
rfemur -36.1551 -14.2487 1.09146
rtibia 46.8468
rfoot -9.45151 -17.9741
rtoes -10.0776
lfemur -1.95603 4.34009 -37.2556
ltibia 15.3596
lfoot -7.21805 9.38818
ltoes -13.1235
